<mxfile host="app.diagrams.net" modified="2022-07-12T09:24:35.112Z" agent="5.0 (X11; Linux x86_64) AppleWebKit/537.36 (KHTML, like Gecko) Chrome/103.0.5060.53 Safari/537.36" etag="VQukeozmbMCVl3ge_VHh" version="20.0.4" type="github">
  <diagram id="Z-9AECb6T2nZV5k_-kZl" name="Page-1">
    <mxGraphModel dx="1314" dy="720" grid="1" gridSize="10" guides="1" tooltips="1" connect="1" arrows="1" fold="1" page="1" pageScale="1" pageWidth="850" pageHeight="1100" math="0" shadow="0">
      <root>
        <mxCell id="0" />
        <mxCell id="1" parent="0" />
        <mxCell id="K0Xey_UpUVevJv5DEJcF-34" value="" style="rounded=1;whiteSpace=wrap;html=1;fontSize=20;fillColor=#f5f5f5;fontColor=#333333;strokeColor=#666666;" vertex="1" parent="1">
          <mxGeometry x="90" y="180" width="210" height="320" as="geometry" />
        </mxCell>
        <mxCell id="K0Xey_UpUVevJv5DEJcF-4" style="edgeStyle=orthogonalEdgeStyle;rounded=0;orthogonalLoop=1;jettySize=auto;html=1;fontSize=20;" edge="1" parent="1" source="K0Xey_UpUVevJv5DEJcF-5" target="K0Xey_UpUVevJv5DEJcF-7">
          <mxGeometry relative="1" as="geometry" />
        </mxCell>
        <mxCell id="K0Xey_UpUVevJv5DEJcF-27" style="edgeStyle=orthogonalEdgeStyle;rounded=0;orthogonalLoop=1;jettySize=auto;html=1;entryX=1;entryY=0.5;entryDx=0;entryDy=0;fontSize=28;" edge="1" parent="1" source="K0Xey_UpUVevJv5DEJcF-5" target="K0Xey_UpUVevJv5DEJcF-25">
          <mxGeometry relative="1" as="geometry">
            <Array as="points">
              <mxPoint x="200" y="230" />
              <mxPoint x="280" y="230" />
              <mxPoint x="280" y="455" />
            </Array>
          </mxGeometry>
        </mxCell>
        <mxCell id="K0Xey_UpUVevJv5DEJcF-5" value="&lt;font style=&quot;font-size: 20px;&quot;&gt;conv2D_3x3&lt;/font&gt;" style="rounded=1;whiteSpace=wrap;html=1;fillColor=#fff2cc;strokeColor=#d6b656;" vertex="1" parent="1">
          <mxGeometry x="140" y="250" width="120" height="60" as="geometry" />
        </mxCell>
        <mxCell id="K0Xey_UpUVevJv5DEJcF-26" style="edgeStyle=orthogonalEdgeStyle;rounded=0;orthogonalLoop=1;jettySize=auto;html=1;entryX=0.5;entryY=0;entryDx=0;entryDy=0;fontSize=28;" edge="1" parent="1" source="K0Xey_UpUVevJv5DEJcF-7" target="K0Xey_UpUVevJv5DEJcF-25">
          <mxGeometry relative="1" as="geometry" />
        </mxCell>
        <mxCell id="K0Xey_UpUVevJv5DEJcF-7" value="&lt;font style=&quot;font-size: 20px;&quot;&gt;conv2D_3x3&lt;/font&gt;" style="rounded=1;whiteSpace=wrap;html=1;fillColor=#fff2cc;strokeColor=#d6b656;" vertex="1" parent="1">
          <mxGeometry x="140" y="360" width="120" height="60" as="geometry" />
        </mxCell>
        <mxCell id="K0Xey_UpUVevJv5DEJcF-28" style="edgeStyle=orthogonalEdgeStyle;rounded=0;orthogonalLoop=1;jettySize=auto;html=1;fontSize=28;" edge="1" parent="1" source="K0Xey_UpUVevJv5DEJcF-25">
          <mxGeometry relative="1" as="geometry">
            <mxPoint x="200" y="480" as="targetPoint" />
          </mxGeometry>
        </mxCell>
        <mxCell id="K0Xey_UpUVevJv5DEJcF-25" value="&lt;b&gt;&lt;font style=&quot;font-size: 28px;&quot;&gt;+&lt;/font&gt;&lt;/b&gt;" style="ellipse;whiteSpace=wrap;html=1;aspect=fixed;" vertex="1" parent="1">
          <mxGeometry x="190" y="445" width="20" height="20" as="geometry" />
        </mxCell>
        <mxCell id="K0Xey_UpUVevJv5DEJcF-29" value="F(x)" style="text;html=1;strokeColor=none;fillColor=none;align=center;verticalAlign=middle;whiteSpace=wrap;rounded=0;fontSize=28;" vertex="1" parent="1">
          <mxGeometry x="130" y="320" width="60" height="30" as="geometry" />
        </mxCell>
        <mxCell id="K0Xey_UpUVevJv5DEJcF-30" value="F(x)+x" style="text;html=1;strokeColor=none;fillColor=none;align=center;verticalAlign=middle;whiteSpace=wrap;rounded=0;fontSize=28;" vertex="1" parent="1">
          <mxGeometry x="114" y="439" width="60" height="30" as="geometry" />
        </mxCell>
        <mxCell id="K0Xey_UpUVevJv5DEJcF-31" value="x" style="text;html=1;strokeColor=none;fillColor=none;align=center;verticalAlign=middle;whiteSpace=wrap;rounded=0;fontSize=28;" vertex="1" parent="1">
          <mxGeometry x="140" y="200" width="60" height="30" as="geometry" />
        </mxCell>
        <mxCell id="K0Xey_UpUVevJv5DEJcF-33" value="" style="endArrow=classic;html=1;rounded=0;fontSize=28;entryX=0.5;entryY=0;entryDx=0;entryDy=0;" edge="1" parent="1" target="K0Xey_UpUVevJv5DEJcF-5">
          <mxGeometry width="50" height="50" relative="1" as="geometry">
            <mxPoint x="200" y="200" as="sourcePoint" />
            <mxPoint x="190" y="230" as="targetPoint" />
          </mxGeometry>
        </mxCell>
      </root>
    </mxGraphModel>
  </diagram>
</mxfile>
